<svg width="28" height="28" viewBox="0 0 28 28" fill="none" xmlns="http://www.w3.org/2000/svg">
<path fill-rule="evenodd" clip-rule="evenodd" d="M14 28C21.732 28 28 21.732 28 14C28 6.26801 21.732 0 14 0C6.26801 0 0 6.26801 0 14C0 21.732 6.26801 28 14 28ZM14.5 14.5H17C17.275 14.5 17.5 14.275 17.5 14C17.5 13.725 17.275 13.5 17 13.5H14.5V11C14.5 10.725 14.275 10.5 14 10.5C13.725 10.5 13.5 10.725 13.5 11V13.5H11C10.725 13.5 10.5 13.725 10.5 14C10.5 14.275 10.725 14.5 11 14.5H13.5V17C13.5 17.275 13.725 17.5 14 17.5C14.275 17.5 14.5 17.275 14.5 17V14.5Z" fill="#AC3DF5"/>
</svg>
