<svg width="32" height="32" viewBox="0 0 32 32" fill="none" xmlns="http://www.w3.org/2000/svg">
<g clip-path="url(#clip0_21299_8329)">
<circle cx="16" cy="16" r="16" fill="#393342"/>
<path d="M21.0579 9.82153C21.3668 9.51262 21.8676 9.51262 22.1765 9.82153C22.4855 10.1304 22.4855 10.6313 22.1765 10.9402L17.1177 15.999L22.1765 21.0579C22.4855 21.3668 22.4855 21.8676 22.1765 22.1765C21.8676 22.4855 21.3668 22.4855 21.0579 22.1765L15.999 17.1177L10.9402 22.1765C10.6313 22.4855 10.1304 22.4855 9.82153 22.1765C9.51262 21.8676 9.51262 21.3668 9.82153 21.0579L14.8804 15.999L9.82153 10.9402C9.51262 10.6313 9.51262 10.1304 9.82153 9.82153C10.1304 9.51262 10.6313 9.51262 10.9402 9.82153L15.999 14.8804L21.0579 9.82153Z" fill="white"/>
</g>
<defs>
<clipPath id="clip0_21299_8329">
<rect width="32" height="32" fill="white"/>
</clipPath>
</defs>
</svg>
