<svg width="14" height="14" viewBox="0 0 14 14" fill="none" xmlns="http://www.w3.org/2000/svg">
<path fill-rule="evenodd" clip-rule="evenodd" d="M3.4139 12.0404C3.78271 12.0404 4.13054 12.1803 4.49871 12.3285C6.75418 13.3713 9.42171 12.8969 11.1596 11.1597C13.4526 8.86544 13.4526 5.13346 11.1596 2.84047C10.0493 1.73022 8.5728 1.11914 7.00091 1.11914C5.42837 1.11914 3.95122 1.73086 2.84161 2.84111C1.10311 4.57833 0.630014 7.24585 1.66332 9.47971C1.81212 9.84788 1.95583 10.2065 1.95583 10.5791C1.95583 10.9511 1.82801 11.3257 1.71546 11.6563C1.62262 11.9285 1.48209 12.3393 1.57239 12.4296C1.66078 12.5211 2.0741 12.3768 2.34689 12.2833C2.67437 12.1714 3.04573 12.0429 3.4139 12.0404ZM6.98597 13.8336C6.01434 13.8336 5.03636 13.6283 4.12133 13.2048C3.85171 13.0967 3.59927 12.9949 3.41804 12.9949C3.20947 12.9962 2.92905 13.0928 2.65816 13.1863C2.1024 13.3771 1.41057 13.6149 0.898681 13.1049C0.388704 12.5943 0.62398 11.9044 0.813473 11.3493C0.906947 11.0758 1.00297 10.7935 1.00297 10.5798C1.00297 10.4043 0.918393 10.1805 0.788674 9.85812C-0.402332 7.28598 0.148341 4.18606 2.16854 2.16713C3.4581 0.876931 5.17435 0.166016 7.00123 0.166016C8.82812 0.166016 10.545 0.876295 11.8346 2.1665C14.5002 4.83211 14.5002 9.16882 11.8346 11.8344C10.5278 13.1418 8.76835 13.8336 6.98597 13.8336Z" fill="white"/>
</svg>
