<svg width="28" height="28" viewBox="0 0 28 28" fill="none" xmlns="http://www.w3.org/2000/svg">
<path fill-rule="evenodd" clip-rule="evenodd" d="M14 28C21.732 28 28 21.732 28 14C28 6.26801 21.732 0 14 0C6.26801 0 0 6.26801 0 14C0 21.732 6.26801 28 14 28ZM14 14.7149L15.7859 16.5008C15.9824 16.6972 16.3038 16.6972 16.5003 16.5008C16.6967 16.3043 16.6967 15.9829 16.5003 15.7864L14.7144 14.0005L16.5003 12.2146C16.6967 12.0182 16.6967 11.6967 16.5003 11.5003C16.3038 11.3038 15.9824 11.3038 15.7859 11.5003L14 13.2862L12.2141 11.5003C12.0176 11.3038 11.6962 11.3038 11.4997 11.5003C11.3033 11.6967 11.3033 12.0182 11.4997 12.2146L13.2856 14.0005L11.4997 15.7864C11.3033 15.9829 11.3033 16.3043 11.4997 16.5008C11.6962 16.6972 12.0176 16.6972 12.2141 16.5008L14 14.7149Z" fill="white"/>
</svg>
