<svg width="18" height="18" viewBox="0 0 18 18" fill="none" xmlns="http://www.w3.org/2000/svg">
<path d="M9 0.25C9.3797 0.25 9.69349 0.532154 9.74315 0.898229L9.75 1V14.1846L14.4921 9.42198C14.7844 9.12846 15.2593 9.12744 15.5528 9.4197C15.8196 9.68539 15.8447 10.102 15.6275 10.3961L15.5551 10.4804L9.81024 16.25H16.5C16.9142 16.25 17.25 16.5858 17.25 17C17.25 17.3797 16.9678 17.6935 16.6018 17.7432L16.5 17.75H1.5C1.08579 17.75 0.75 17.4142 0.75 17C0.75 16.6203 1.03215 16.3065 1.39823 16.2568L1.5 16.25H8.18894L2.44318 10.4804C2.1509 10.1869 2.15188 9.71203 2.44538 9.41974C2.7122 9.15403 3.12891 9.13069 3.42207 9.34915L3.50604 9.42194L8.25 14.185V1C8.25 0.585786 8.58579 0.25 9 0.25Z" fill="white"/>
</svg>
