<svg width="24" height="24" viewBox="0 0 24 24" fill="none" xmlns="http://www.w3.org/2000/svg">
<path d="M10.0001 5.99987C10.636 5.99987 11.2546 6.07408 11.8478 6.2143L11.6203 6.93571C11.0994 6.81672 10.5571 6.75387 10.0001 6.75387C5.99817 6.75387 2.754 9.99804 2.754 13.9999C2.754 18.0018 5.99817 21.246 10.0001 21.246C14.002 21.246 17.2461 18.0018 17.2461 13.9999C17.2461 13.476 17.1905 12.965 17.0849 12.4726L17.8193 12.3005C17.9377 12.8482 18.0001 13.4168 18.0001 13.9999C18.0001 18.4182 14.4184 22 10.0001 22C5.58175 22 2 18.4182 2 13.9999C2 9.58162 5.58175 5.99987 10.0001 5.99987Z" fill="white"/>
<path d="M7.63641 13.6317C8.13849 13.6317 8.54551 12.7363 8.54551 11.6317C8.54551 10.5271 8.13849 9.6317 7.63641 9.6317C7.13434 9.6317 6.72732 10.5271 6.72732 11.6317C6.72732 12.7363 7.13434 13.6317 7.63641 13.6317Z" fill="white"/>
<path d="M12.3638 13.6317C12.8659 13.6317 13.2729 12.7363 13.2729 11.6317C13.2729 10.5271 12.8659 9.6317 12.3638 9.6317C11.8617 9.6317 11.4547 10.5271 11.4547 11.6317C11.4547 12.7363 11.8617 13.6317 12.3638 13.6317Z" fill="white"/>
<path d="M6.72727 14.7221C7.80836 14.9323 8.68255 15.0857 10 15.0857C11.3175 15.0857 12.1916 14.9323 13.2727 14.7221C13.5196 14.6741 14 14.7221 14 15.4494C14 16.9039 12.3287 18.7221 10 18.7221C7.67091 18.7221 6 16.9039 6 15.4494C6 14.7221 6.48036 14.6745 6.72727 14.7221Z" fill="white"/>
<path d="M21.3333 7.33338H18V10.6667C18 11.0334 17.7 11.3334 17.3333 11.3334C16.9666 11.3334 16.6666 11.0334 16.6666 10.6667V7.33338H13.3333C12.9666 7.33338 12.6666 7.03337 12.6666 6.6667C12.6666 6.30003 12.9666 6.00003 13.3333 6.00003H16.6666V2.66667C16.6666 2.3 16.9666 2 17.3333 2C17.7 2 18 2.3 18 2.66667V6.00003H21.3333C21.7 6.00003 22 6.30003 22 6.6667C22 7.03337 21.7 7.33338 21.3333 7.33338Z" fill="white"/>
</svg>
