<svg width="23" height="28" viewBox="0 0 23 28" fill="none" xmlns="http://www.w3.org/2000/svg">
<path fill-rule="evenodd" clip-rule="evenodd" d="M17.5637 11.599C17.0117 11.599 16.5637 11.151 16.5637 10.599V7.73637C16.5637 4.94171 14.2903 2.66837 11.4957 2.66837H11.4743C10.1237 2.66837 8.85834 3.18837 7.90234 4.13637C6.93968 5.08837 6.40768 6.35904 6.40234 7.71371V10.599C6.40234 11.151 5.95434 11.599 5.40234 11.599C4.85034 11.599 4.40234 11.151 4.40234 10.599V7.73637C4.41034 5.81637 5.15301 4.04437 6.49301 2.71637C7.83434 1.38704 9.60501 0.617705 11.4997 0.668371C15.393 0.668371 18.5637 3.83904 18.5637 7.73637V10.599C18.5637 11.151 18.1157 11.599 17.5637 11.599Z" fill="white"/>
<path fill-rule="evenodd" clip-rule="evenodd" d="M6.38803 11.5039C4.1507 11.5039 2.33203 13.3226 2.33203 15.5599V21.2786C2.33203 23.5159 4.1507 25.3346 6.38803 25.3346H16.576C18.812 25.3346 20.632 23.5159 20.632 21.2786V15.5599C20.632 13.3226 18.812 11.5039 16.576 11.5039H6.38803ZM16.576 27.3346H6.38803C3.04803 27.3346 0.332031 24.6186 0.332031 21.2786V15.5599C0.332031 12.2199 3.04803 9.50391 6.38803 9.50391H16.576C19.916 9.50391 22.632 12.2199 22.632 15.5599V21.2786C22.632 24.6186 19.916 27.3346 16.576 27.3346Z" fill="white"/>
<path fill-rule="evenodd" clip-rule="evenodd" d="M11.4805 20.8998C10.9285 20.8998 10.4805 20.4518 10.4805 19.8998V16.9385C10.4805 16.3865 10.9285 15.9385 11.4805 15.9385C12.0325 15.9385 12.4805 16.3865 12.4805 16.9385V19.8998C12.4805 20.4518 12.0325 20.8998 11.4805 20.8998Z" fill="white"/>
</svg>
