<svg width="32" height="32" viewBox="0 0 32 32" fill="none" xmlns="http://www.w3.org/2000/svg">
<circle cx="16" cy="16" r="16" fill="#313336"/>
<path d="M11.7902 14.5967C11.0183 14.5967 10.3867 15.2283 10.3867 16.0002C10.3867 16.7721 11.0183 17.4037 11.7902 17.4037C12.5622 17.4037 13.1937 16.7721 13.1937 16.0002C13.1937 15.2283 12.5622 14.5967 11.7902 14.5967ZM20.2113 14.5967C19.4394 14.5967 18.8078 15.2283 18.8078 16.0002C18.8078 16.7721 19.4394 17.4037 20.2113 17.4037C20.9832 17.4037 21.6148 16.7721 21.6148 16.0002C21.6148 15.2283 20.9832 14.5967 20.2113 14.5967ZM16.0008 14.5967C15.2288 14.5967 14.5972 15.2283 14.5972 16.0002C14.5972 16.7721 15.2288 17.4037 16.0008 17.4037C16.7727 17.4037 17.4043 16.7721 17.4043 16.0002C17.4043 15.2283 16.7727 14.5967 16.0008 14.5967Z" fill="white"/>
</svg>
