<svg width="16" height="18" viewBox="0 0 16 18" fill="none" xmlns="http://www.w3.org/2000/svg">
<mask id="mask0_21368_11534" style="mask-type:luminance" maskUnits="userSpaceOnUse" x="0" y="0" width="16" height="15">
<path fill-rule="evenodd" clip-rule="evenodd" d="M0 0H15.4857V14.5238H0V0Z" fill="white"/>
</mask>
<g mask="url(#mask0_21368_11534)">
<path fill-rule="evenodd" clip-rule="evenodd" d="M7.74123 1.25654C4.81521 1.25654 2.77578 3.5488 2.77578 5.6058C2.77578 7.34635 2.29272 8.1509 1.86574 8.86085C1.52333 9.43098 1.25291 9.88139 1.25291 10.8601C1.39272 12.439 2.43504 13.2687 7.74123 13.2687C13.0181 13.2687 14.0931 12.4022 14.2321 10.8057C14.2295 9.8814 13.9591 9.43098 13.6167 8.86085C13.1897 8.1509 12.7067 7.34635 12.7067 5.6058C12.7067 3.5488 10.6672 1.25654 7.74123 1.25654ZM7.74162 14.5238C3.82686 14.5238 0.288846 14.2475 1.11806e-05 10.9129C-0.00250043 9.53322 0.418612 8.83165 0.79033 8.21379C1.16623 7.58756 1.52037 6.99734 1.52037 5.60507C1.52037 2.89839 4.02026 0 7.74162 0C11.463 0 13.9629 2.89839 13.9629 5.60507C13.9629 6.99734 14.317 7.58756 14.6929 8.21379C15.0646 8.83165 15.4857 9.53322 15.4857 10.8593C15.1936 14.2475 11.6564 14.5238 7.74162 14.5238Z" fill="white"/>
</g>
<path fill-rule="evenodd" clip-rule="evenodd" d="M7.70061 18H7.69893C6.76043 17.9991 5.87216 17.5856 5.19821 16.8346C4.9663 16.5776 4.98723 16.1799 5.24509 15.9488C5.50295 15.7161 5.89978 15.737 6.13169 15.9957C6.56536 16.4788 7.1221 16.7442 7.69977 16.7442H7.70061C8.28079 16.7442 8.84004 16.4788 9.27455 15.9949C9.50729 15.7379 9.90412 15.7169 10.1611 15.9488C10.419 16.1807 10.4399 16.5784 10.208 16.8354C9.53157 17.5864 8.64162 18 7.70061 18Z" fill="white"/>
</svg>
