<svg width="32" height="32" viewBox="0 0 32 32" fill="none" xmlns="http://www.w3.org/2000/svg">
<g clip-path="url(#clip0_1388_51820)">
<path d="M15.9997 31.9995C24.8362 31.9995 31.9995 24.8362 31.9995 15.9997C31.9995 7.16333 24.8362 0 15.9997 0C7.16333 0 0 7.16333 0 15.9997C0 24.8362 7.16333 31.9995 15.9997 31.9995Z" fill="#EAD61B"/>
<g opacity="0.78">
<path opacity="0.78" d="M15.9995 22.3371V25.6718L24.992 20.1733L24.9747 17.1348L15.9995 22.3371Z" fill="#3A0CA3"/>
</g>
<g opacity="0.78">
<path opacity="0.78" d="M15.9995 17.0197V20.3549L24.992 14.856L24.9747 11.8174L15.9995 17.0197Z" fill="#3A0CA3"/>
</g>
<g opacity="0.78">
<path opacity="0.78" d="M15.9819 9.65433L15.9997 6.33008L24.9927 11.8285V14.8561L15.9819 9.65433Z" fill="#7209B7"/>
</g>
<g opacity="0.78">
<path opacity="0.78" d="M15.9819 14.9698L15.9997 11.6455L24.9749 17.1335L24.9927 20.1721L15.9819 14.9698Z" fill="#7209B7"/>
</g>
<g opacity="0.78">
<path opacity="0.78" d="M16.0008 22.3371V25.6718L7.00781 20.1733L7.02505 17.1348L16.0008 22.3371Z" fill="#7209B7"/>
</g>
<g opacity="0.78">
<path opacity="0.78" d="M16.0008 17.0197V20.3549L7.00781 14.856L7.02505 11.8174L16.0008 17.0197Z" fill="#7209B7"/>
</g>
<g opacity="0.78">
<path opacity="0.78" d="M16.018 9.65433L16.0003 6.33008L7.00732 11.8285V14.8561L16.018 9.65433Z" fill="#3A0CA3"/>
</g>
<g opacity="0.78">
<path opacity="0.78" d="M16.018 14.9698L16.0003 11.6455L7.02508 17.1335L7.00732 20.1721L16.018 14.9698Z" fill="#3A0CA3"/>
</g>
</g>
<defs>
<clipPath id="clip0_1388_51820">
<rect width="32" height="32" fill="white"/>
</clipPath>
</defs>
</svg>
