<svg width="24" height="24" viewBox="0 0 24 24" fill="none" xmlns="http://www.w3.org/2000/svg">
<path d="M12.0001 20.75C12.3798 20.75 12.6936 20.4678 12.7433 20.1018L12.7501 20V5C12.7501 4.58579 12.4143 4.25 12.0001 4.25C11.6204 4.25 11.3066 4.53215 11.257 4.89823L11.2501 5V20C11.2501 20.4142 11.5859 20.75 12.0001 20.75Z" fill="white"/>
<path d="M20.25 4C20.25 3.6203 19.9678 3.30651 19.6018 3.25685L19.5 3.25L4.5 3.25C4.08579 3.25 3.75 3.58579 3.75 4C3.75 4.3797 4.03215 4.69349 4.39823 4.74315L4.5 4.75L19.5 4.75C19.9142 4.75 20.25 4.41421 20.25 4Z" fill="white"/>
<path d="M17.493 11.577C17.7853 11.8706 18.2602 11.8716 18.5537 11.5793C18.8205 11.3136 18.8456 10.897 18.6284 10.6029L18.556 10.5187L12.532 4.46867C12.2655 4.20103 11.8474 4.17669 11.5533 4.39564L11.4691 4.46863L5.44409 10.5186C5.1518 10.8121 5.15279 11.287 5.44628 11.5793C5.7131 11.845 6.12981 11.8683 6.42297 11.6499L6.50694 11.5771L12.0008 6.06106L17.493 11.577Z" fill="white"/>
</svg>
