<svg width="20" height="20" viewBox="0 0 20 20" fill="none" xmlns="http://www.w3.org/2000/svg">
<path d="M14.8056 2.22222V2.97222H15.5556H17.7778C18.5858 2.97222 19.25 3.63644 19.25 4.44444V5.55556C19.25 7.99857 17.4104 10.0014 15.0288 10.3003L14.5986 10.3543L14.4307 10.754C13.8255 12.195 12.5266 13.2815 10.9623 13.5982L10.3611 13.72V14.3333V17.7778V18.5278H11.1111H14.4444C14.6413 18.5278 14.8056 18.692 14.8056 18.8889C14.8056 19.0858 14.6413 19.25 14.4444 19.25H5.55556C5.35866 19.25 5.19444 19.0858 5.19444 18.8889C5.19444 18.692 5.35866 18.5278 5.55556 18.5278H8.88889H9.63889V17.7778V14.3333V13.72L9.03771 13.5982C7.47336 13.2815 6.17449 12.195 5.56926 10.754L5.40137 10.3543L4.97117 10.3003C2.58963 10.0014 0.75 7.99857 0.75 5.55556V4.44444C0.75 3.63644 1.41421 2.97222 2.22222 2.97222H4.44444H5.19444V2.22222V1.11111C5.19444 0.914214 5.35866 0.75 5.55556 0.75H14.4444C14.6413 0.75 14.8056 0.914213 14.8056 1.11111V2.22222ZM2.22222 3.69444H1.47222V4.44444V5.55556C1.47222 7.33421 2.62105 8.82634 4.18911 9.39409L5.19444 9.75809V8.68889V4.44444V3.69444H4.44444H2.22222ZM14.8056 8.68889V9.75809L15.8109 9.39409C17.3789 8.82634 18.5278 7.33421 18.5278 5.55556V4.44444V3.69444H17.7778H15.5556H14.8056V4.44444V8.68889Z" stroke="#747576" stroke-width="1.5"/>
</svg>
