<svg width="20" height="20" viewBox="0 0 20 20" fill="none" xmlns="http://www.w3.org/2000/svg">
<path fill-rule="evenodd" clip-rule="evenodd" d="M0 6.96994V17.8379C0 18.3684 0.210714 18.8771 0.585786 19.2522C0.960859 19.6272 1.46957 19.8379 2 19.8379H7V14.8379C7 14.0423 7.31607 13.2792 7.87868 12.7166C8.44129 12.154 9.20435 11.8379 10 11.8379C10.7956 11.8379 11.5587 12.154 12.1213 12.7166C12.6839 13.2792 13 14.0423 13 14.8379V19.8379H18C18.5304 19.8379 19.0391 19.6272 19.4142 19.2522C19.7893 18.8771 20 18.3684 20 17.8379V6.96994C20 6.62457 19.9106 6.28508 19.7404 5.98454C19.5702 5.68399 19.3252 5.43264 19.029 5.25494L11.029 0.454941C10.7182 0.268439 10.3625 0.169922 10 0.169922C9.63751 0.169922 9.28183 0.268439 8.971 0.454941L0.971 5.25494C0.674847 5.43264 0.429755 5.68399 0.259593 5.98454C0.0894306 6.28508 -3.32265e-06 6.62457 0 6.96994ZM1.74274 6.54118C1.66871 6.5856 1.60744 6.64844 1.5649 6.72358C1.52236 6.79871 1.5 6.88358 1.5 6.96993V17.8379C1.5 17.9706 1.55268 18.0977 1.64645 18.1915C1.74022 18.2853 1.86739 18.3379 2 18.3379H5.5V14.8379C5.5 13.6445 5.97411 12.4999 6.81802 11.656C7.66193 10.812 8.80652 10.3379 10 10.3379C11.1935 10.3379 12.3381 10.812 13.182 11.656C14.0259 12.4999 14.5 13.6445 14.5 14.8379V18.3379H18C18.1326 18.3379 18.2598 18.2853 18.3536 18.1915C18.4473 18.0977 18.5 17.9705 18.5 17.8379V6.96993C18.5 6.88358 18.4776 6.79871 18.4351 6.72358C18.3926 6.64844 18.3313 6.5856 18.2573 6.54118L10.2573 1.74118C10.1795 1.69456 10.0906 1.66992 10 1.66992C9.90938 1.66992 9.82046 1.69455 9.74275 1.74118L1.74274 6.54118Z" fill="#87888A"/>
</svg>
