<svg width="20" height="20" viewBox="0 0 20 20" fill="none" xmlns="http://www.w3.org/2000/svg">
<path d="M13 19.8321V14.8321C13 14.0364 12.6839 13.2734 12.1213 12.7108C11.5587 12.1482 10.7956 11.8321 10 11.8321C9.20435 11.8321 8.44129 12.1482 7.87868 12.7108C7.31607 13.2734 7 14.0364 7 14.8321V19.8321H2C1.46957 19.8321 0.960859 19.6214 0.585786 19.2463C0.210714 18.8712 0 18.3625 0 17.8321V6.96408C-3.32274e-06 6.61871 0.0894306 6.27922 0.259593 5.97868C0.429755 5.67813 0.674847 5.42678 0.971 5.24908L8.971 0.449082C9.28183 0.26258 9.63751 0.164062 10 0.164062C10.3625 0.164062 10.7182 0.26258 11.029 0.449082L19.029 5.24908C19.3252 5.42678 19.5702 5.67813 19.7404 5.97868C19.9106 6.27922 20 6.61871 20 6.96408V17.8321C20 18.3625 19.7893 18.8712 19.4142 19.2463C19.0391 19.6214 18.5304 19.8321 18 19.8321H13Z" fill="white"/>
</svg>
