<svg width="16" height="20" viewBox="0 0 16 20" fill="none" xmlns="http://www.w3.org/2000/svg">
<path fill-rule="evenodd" clip-rule="evenodd" d="M2.68366 5.39816C2.68432 2.46594 5.06215 0.0898438 7.99414 0.0898438C10.9267 0.0898438 13.3037 2.46678 13.3037 5.39937C13.3037 8.33176 10.9269 10.7098 7.99414 10.7098H7.96176L7.95934 10.7098C5.03651 10.6999 2.67441 8.32144 2.68366 5.39816ZM2.68366 5.39816L2.68367 5.39695L2.68366 5.39937V5.39816ZM7.99414 1.51842C5.85034 1.51842 4.11223 3.25595 4.11223 5.39937V5.40179C4.105 7.53664 5.82968 9.27345 7.9631 9.28127H7.99414C10.1376 9.28127 11.8751 7.54317 11.8751 5.39937C11.8751 3.25576 10.1377 1.51842 7.99414 1.51842ZM2.73148 13.2437C4.15569 12.7662 6.04519 12.6216 7.99414 12.6216C9.95479 12.6216 11.8449 12.7718 13.2671 13.2556C13.982 13.4987 14.6308 13.843 15.1071 14.3422C15.5998 14.8587 15.8779 15.5112 15.8779 16.2835C15.8779 17.0573 15.5973 17.7094 15.1018 18.2239C14.6231 18.7208 13.972 19.0618 13.2564 19.3019C11.8324 19.7795 9.94315 19.9244 7.99414 19.9244C6.03355 19.9244 4.14325 19.7744 2.72078 19.2908C2.0058 19.0477 1.35685 18.7034 0.880449 18.2042C0.38758 17.6877 0.109375 17.035 0.109375 16.2625C0.109375 15.4885 0.390061 14.8362 0.88575 14.3217C1.36449 13.8247 2.01576 13.4837 2.73148 13.2437ZM1.91458 15.3128C1.67012 15.5666 1.53795 15.8656 1.53795 16.2625C1.53795 16.661 1.66998 16.9622 1.91399 17.218C2.17446 17.4909 2.58902 17.7372 3.18059 17.9383C4.37121 18.343 6.06615 18.4958 7.99414 18.4958C9.91274 18.4958 11.6082 18.3479 12.8021 17.9474C13.3954 17.7484 13.8115 17.5041 14.0729 17.2328C14.3173 16.9791 14.4494 16.6801 14.4494 16.2835C14.4494 15.8853 14.3174 15.5841 14.0735 15.3284C13.813 15.0554 13.3986 14.8092 12.8071 14.608C11.6167 14.2032 9.92205 14.0501 7.99414 14.0501C6.07546 14.0501 4.37973 14.1978 3.1856 14.5982C2.59215 14.7972 2.17599 15.0414 1.91458 15.3128Z" fill="#87888A"/>
</svg>
