<svg width="19" height="19" viewBox="0 0 19 19" fill="none" xmlns="http://www.w3.org/2000/svg">
<path d="M8.49953 14.4995C9.28746 14.4995 10.0677 14.3443 10.7956 14.0428C11.5236 13.7413 12.185 13.2993 12.7422 12.7422C13.2993 12.185 13.7413 11.5236 14.0428 10.7956C14.3443 10.0677 14.4995 9.28746 14.4995 8.49953C14.4995 7.7116 14.3443 6.93138 14.0428 6.20343C13.7413 5.47547 13.2993 4.81404 12.7422 4.25689C12.185 3.69973 11.5236 3.25778 10.7956 2.95625C10.0677 2.65472 9.28746 2.49953 8.49953 2.49953C6.90823 2.49953 5.3821 3.13167 4.25689 4.25689C3.13167 5.3821 2.49953 6.90823 2.49953 8.49953C2.49953 10.0908 3.13167 11.6169 4.25689 12.7422C5.3821 13.8674 6.90823 14.4995 8.49953 14.4995ZM14.8195 13.4055L18.3995 16.9855C18.495 17.0778 18.5711 17.1882 18.6234 17.3103C18.6757 17.4323 18.7032 17.5636 18.7043 17.6963C18.7053 17.8291 18.6799 17.9608 18.6296 18.0836C18.5792 18.2065 18.5049 18.3181 18.4109 18.4119C18.3169 18.5057 18.2052 18.5799 18.0823 18.6301C17.9594 18.6803 17.8277 18.7055 17.6949 18.7043C17.5621 18.703 17.4309 18.6753 17.309 18.6229C17.187 18.5704 17.0767 18.4941 16.9845 18.3985L13.4045 14.8185C11.797 16.0664 9.77432 16.6547 7.74828 16.4637C5.72224 16.2727 3.84513 15.3168 2.49908 13.7906C1.15302 12.2643 0.439211 10.2825 0.502952 8.24845C0.566694 6.21443 1.4032 4.28115 2.84217 2.84217C4.28115 1.4032 6.21443 0.566694 8.24845 0.502952C10.2825 0.439211 12.2643 1.15302 13.7906 2.49908C15.3168 3.84513 16.2727 5.72224 16.4637 7.74828C16.6547 9.77432 16.0664 11.797 14.8185 13.4045L14.8195 13.4055Z" fill="#747576"/>
</svg>
